<mxfile host="app.diagrams.net" modified="2024-05-09T04:33:58.541Z" agent="Mozilla/5.0 (Windows NT 10.0; Win64; x64) AppleWebKit/537.36 (KHTML, like Gecko) Chrome/124.0.0.0 Safari/537.36" etag="QzuqmjT2pXzj8PA1oU5L" version="24.3.1" type="device">
  <diagram name="페이지-1" id="-UCy4r8BJnA_KpEvkS8E">
    <mxGraphModel dx="875" dy="435" grid="1" gridSize="10" guides="1" tooltips="1" connect="1" arrows="1" fold="1" page="1" pageScale="1" pageWidth="827" pageHeight="1169" math="0" shadow="0">
      <root>
        <mxCell id="0" />
        <mxCell id="1" parent="0" />
        <mxCell id="a7vctcmLEf8AsVFq41Ak-1" value="User(고객)" style="shape=umlActor;verticalLabelPosition=bottom;verticalAlign=top;html=1;outlineConnect=0;fontSize=21;" parent="1" vertex="1">
          <mxGeometry x="50" y="230" width="110" height="240" as="geometry" />
        </mxCell>
        <mxCell id="a7vctcmLEf8AsVFq41Ak-6" value="" style="rounded=0;whiteSpace=wrap;html=1;rotation=-90;" parent="1" vertex="1">
          <mxGeometry x="333.75" y="6.25" width="495" height="557.5" as="geometry" />
        </mxCell>
        <mxCell id="a7vctcmLEf8AsVFq41Ak-7" value="영남이의 모험" style="text;strokeColor=none;fillColor=none;html=1;fontSize=24;fontStyle=1;verticalAlign=middle;align=center;" parent="1" vertex="1">
          <mxGeometry x="482.5" y="50" width="150" height="40" as="geometry" />
        </mxCell>
        <mxCell id="a7vctcmLEf8AsVFq41Ak-8" value="&lt;font style=&quot;font-size: 12px;&quot;&gt;Login&lt;/font&gt;" style="ellipse;whiteSpace=wrap;html=1;fontSize=12;" parent="1" vertex="1">
          <mxGeometry x="650" y="200" width="116" height="40" as="geometry" />
        </mxCell>
        <mxCell id="sbpFPQ_lmuKy7Qo0iHd_-1" value="&lt;span style=&quot;font-size: 12px;&quot;&gt;Register&lt;/span&gt;" style="ellipse;whiteSpace=wrap;html=1;fontSize=12;" parent="1" vertex="1">
          <mxGeometry x="650" y="100" width="116" height="40" as="geometry" />
        </mxCell>
        <mxCell id="sbpFPQ_lmuKy7Qo0iHd_-2" value="&lt;span style=&quot;&quot;&gt;Confirm User Information&lt;/span&gt;" style="ellipse;whiteSpace=wrap;html=1;" parent="1" vertex="1">
          <mxGeometry x="355" y="170" width="116" height="40" as="geometry" />
        </mxCell>
        <mxCell id="sbpFPQ_lmuKy7Qo0iHd_-9" value="" style="endArrow=open;dashed=1;html=1;strokeWidth=2;rounded=0;dashPattern=1 1;startArrow=none;startFill=0;labelPosition=left;verticalLabelPosition=top;align=right;verticalAlign=bottom;endFill=0;" parent="1" source="a7vctcmLEf8AsVFq41Ak-8" target="sbpFPQ_lmuKy7Qo0iHd_-1" edge="1">
          <mxGeometry width="50" height="50" relative="1" as="geometry">
            <mxPoint x="740" y="210" as="sourcePoint" />
            <mxPoint x="790" y="160" as="targetPoint" />
          </mxGeometry>
        </mxCell>
        <mxCell id="sbpFPQ_lmuKy7Qo0iHd_-11" value="&amp;lt;&amp;lt;extend&amp;gt;&amp;gt;" style="edgeLabel;html=1;align=left;verticalAlign=bottom;resizable=0;points=[];labelPosition=right;verticalLabelPosition=top;" parent="sbpFPQ_lmuKy7Qo0iHd_-9" vertex="1" connectable="0">
          <mxGeometry relative="1" as="geometry">
            <mxPoint as="offset" />
          </mxGeometry>
        </mxCell>
        <mxCell id="sbpFPQ_lmuKy7Qo0iHd_-12" value="&lt;font style=&quot;font-size: 12px;&quot;&gt;View Place Infromation&lt;/font&gt;" style="ellipse;whiteSpace=wrap;html=1;" parent="1" vertex="1">
          <mxGeometry x="355" y="275" width="116" height="40" as="geometry" />
        </mxCell>
        <mxCell id="sbpFPQ_lmuKy7Qo0iHd_-13" value="&lt;font style=&quot;font-size: 12px;&quot;&gt;Complete Tour&lt;/font&gt;" style="ellipse;whiteSpace=wrap;html=1;" parent="1" vertex="1">
          <mxGeometry x="355" y="370" width="116" height="40" as="geometry" />
        </mxCell>
        <mxCell id="sbpFPQ_lmuKy7Qo0iHd_-15" value="&lt;font style=&quot;font-size: 12px;&quot;&gt;Get Level, exp&lt;/font&gt;&lt;div&gt;&lt;span style=&quot;background-color: initial;&quot;&gt;Information&lt;/span&gt;&lt;/div&gt;" style="ellipse;whiteSpace=wrap;html=1;" parent="1" vertex="1">
          <mxGeometry x="650" y="370" width="116" height="40" as="geometry" />
        </mxCell>
        <mxCell id="sbpFPQ_lmuKy7Qo0iHd_-16" value="&lt;font style=&quot;font-size: 12px;&quot;&gt;Logout&lt;/font&gt;" style="ellipse;whiteSpace=wrap;html=1;" parent="1" vertex="1">
          <mxGeometry x="355" y="70" width="116" height="40" as="geometry" />
        </mxCell>
        <mxCell id="sbpFPQ_lmuKy7Qo0iHd_-17" value="&lt;font style=&quot;font-size: 12px;&quot;&gt;Get&amp;nbsp;&lt;/font&gt;&lt;font style=&quot;background-color: initial;&quot;&gt;Location&amp;nbsp;&lt;/font&gt;&lt;span style=&quot;background-color: initial;&quot;&gt;List&lt;/span&gt;" style="ellipse;whiteSpace=wrap;html=1;" parent="1" vertex="1">
          <mxGeometry x="650" y="285" width="116" height="40" as="geometry" />
        </mxCell>
        <mxCell id="JQGQ8hl08U9fBBSqYFLf-1" value="Apply Level, exp&lt;div&gt;information&lt;/div&gt;" style="ellipse;whiteSpace=wrap;html=1;fontSize=12;" vertex="1" parent="1">
          <mxGeometry x="650" y="440" width="116" height="40" as="geometry" />
        </mxCell>
        <mxCell id="JQGQ8hl08U9fBBSqYFLf-5" value="" style="endArrow=none;html=1;rounded=0;entryX=0;entryY=0.5;entryDx=0;entryDy=0;" edge="1" parent="1" target="sbpFPQ_lmuKy7Qo0iHd_-2">
          <mxGeometry width="50" height="50" relative="1" as="geometry">
            <mxPoint x="160" y="380" as="sourcePoint" />
            <mxPoint x="520" y="260" as="targetPoint" />
          </mxGeometry>
        </mxCell>
        <mxCell id="JQGQ8hl08U9fBBSqYFLf-6" value="" style="endArrow=none;html=1;rounded=0;entryX=0;entryY=0.5;entryDx=0;entryDy=0;" edge="1" parent="1" target="sbpFPQ_lmuKy7Qo0iHd_-12">
          <mxGeometry width="50" height="50" relative="1" as="geometry">
            <mxPoint x="160" y="380" as="sourcePoint" />
            <mxPoint x="200" y="230" as="targetPoint" />
          </mxGeometry>
        </mxCell>
        <mxCell id="JQGQ8hl08U9fBBSqYFLf-7" value="" style="endArrow=none;html=1;rounded=0;entryX=0;entryY=0.5;entryDx=0;entryDy=0;" edge="1" parent="1" target="sbpFPQ_lmuKy7Qo0iHd_-16">
          <mxGeometry width="50" height="50" relative="1" as="geometry">
            <mxPoint x="160" y="380" as="sourcePoint" />
            <mxPoint x="520" y="260" as="targetPoint" />
          </mxGeometry>
        </mxCell>
        <mxCell id="JQGQ8hl08U9fBBSqYFLf-8" value="" style="endArrow=none;html=1;rounded=0;entryX=0;entryY=0.5;entryDx=0;entryDy=0;" edge="1" parent="1" target="sbpFPQ_lmuKy7Qo0iHd_-13">
          <mxGeometry width="50" height="50" relative="1" as="geometry">
            <mxPoint x="160" y="380" as="sourcePoint" />
            <mxPoint x="520" y="260" as="targetPoint" />
          </mxGeometry>
        </mxCell>
        <mxCell id="JQGQ8hl08U9fBBSqYFLf-9" value="" style="endArrow=none;html=1;rounded=0;entryX=0;entryY=0.5;entryDx=0;entryDy=0;" edge="1" parent="1" target="a7vctcmLEf8AsVFq41Ak-8">
          <mxGeometry width="50" height="50" relative="1" as="geometry">
            <mxPoint x="160" y="380" as="sourcePoint" />
            <mxPoint x="550" y="260" as="targetPoint" />
            <Array as="points">
              <mxPoint x="430" y="340" />
            </Array>
          </mxGeometry>
        </mxCell>
        <mxCell id="JQGQ8hl08U9fBBSqYFLf-10" value="" style="endArrow=open;html=1;rounded=0;entryX=0;entryY=0.5;entryDx=0;entryDy=0;exitX=1;exitY=0.5;exitDx=0;exitDy=0;dashed=1;dashPattern=1 2;startArrow=none;startFill=0;endFill=0;" edge="1" parent="1" source="sbpFPQ_lmuKy7Qo0iHd_-2" target="a7vctcmLEf8AsVFq41Ak-8">
          <mxGeometry width="50" height="50" relative="1" as="geometry">
            <mxPoint x="500" y="310" as="sourcePoint" />
            <mxPoint x="550" y="260" as="targetPoint" />
          </mxGeometry>
        </mxCell>
        <mxCell id="JQGQ8hl08U9fBBSqYFLf-12" value="&amp;lt;&amp;lt;include&amp;gt;&amp;gt;" style="edgeLabel;html=1;align=center;verticalAlign=middle;resizable=0;points=[];" vertex="1" connectable="0" parent="JQGQ8hl08U9fBBSqYFLf-10">
          <mxGeometry x="0.0786" y="-1" relative="1" as="geometry">
            <mxPoint x="-17" y="-17" as="offset" />
          </mxGeometry>
        </mxCell>
        <mxCell id="JQGQ8hl08U9fBBSqYFLf-14" value="" style="endArrow=open;dashed=1;html=1;dashPattern=1 1;strokeWidth=2;rounded=0;entryX=0;entryY=0.5;entryDx=0;entryDy=0;exitX=1;exitY=0.5;exitDx=0;exitDy=0;startArrow=none;startFill=0;endFill=0;" edge="1" parent="1" source="sbpFPQ_lmuKy7Qo0iHd_-13" target="JQGQ8hl08U9fBBSqYFLf-1">
          <mxGeometry width="50" height="50" relative="1" as="geometry">
            <mxPoint x="481" y="400" as="sourcePoint" />
            <mxPoint x="630" y="315" as="targetPoint" />
          </mxGeometry>
        </mxCell>
        <mxCell id="JQGQ8hl08U9fBBSqYFLf-21" value="&amp;lt;&amp;lt;include&amp;gt;&amp;gt;" style="edgeLabel;html=1;align=center;verticalAlign=middle;resizable=0;points=[];" vertex="1" connectable="0" parent="JQGQ8hl08U9fBBSqYFLf-14">
          <mxGeometry x="-0.0166" y="-2" relative="1" as="geometry">
            <mxPoint x="-19" y="14" as="offset" />
          </mxGeometry>
        </mxCell>
        <mxCell id="JQGQ8hl08U9fBBSqYFLf-15" value="" style="endArrow=open;dashed=1;html=1;dashPattern=1 1;strokeWidth=2;rounded=0;entryX=0;entryY=0.5;entryDx=0;entryDy=0;exitX=1;exitY=0.5;exitDx=0;exitDy=0;startArrow=none;startFill=0;endFill=0;" edge="1" parent="1" source="sbpFPQ_lmuKy7Qo0iHd_-13" target="sbpFPQ_lmuKy7Qo0iHd_-17">
          <mxGeometry width="50" height="50" relative="1" as="geometry">
            <mxPoint x="491" y="410" as="sourcePoint" />
            <mxPoint x="640" y="325" as="targetPoint" />
          </mxGeometry>
        </mxCell>
        <mxCell id="JQGQ8hl08U9fBBSqYFLf-28" value="&amp;lt;&amp;lt;include&amp;gt;&amp;gt;" style="edgeLabel;html=1;align=center;verticalAlign=middle;resizable=0;points=[];" vertex="1" connectable="0" parent="JQGQ8hl08U9fBBSqYFLf-15">
          <mxGeometry x="-0.0799" relative="1" as="geometry">
            <mxPoint x="4" y="19" as="offset" />
          </mxGeometry>
        </mxCell>
        <mxCell id="JQGQ8hl08U9fBBSqYFLf-17" value="" style="endArrow=open;dashed=1;html=1;rounded=0;exitX=1;exitY=0.5;exitDx=0;exitDy=0;entryX=0;entryY=0.5;entryDx=0;entryDy=0;startArrow=none;startFill=0;endFill=0;" edge="1" parent="1" source="sbpFPQ_lmuKy7Qo0iHd_-12" target="sbpFPQ_lmuKy7Qo0iHd_-17">
          <mxGeometry width="50" height="50" relative="1" as="geometry">
            <mxPoint x="910" y="380" as="sourcePoint" />
            <mxPoint x="960" y="330" as="targetPoint" />
          </mxGeometry>
        </mxCell>
        <mxCell id="JQGQ8hl08U9fBBSqYFLf-22" value="&amp;lt;&amp;lt;include&amp;gt;&amp;gt;" style="edgeLabel;html=1;align=center;verticalAlign=middle;resizable=0;points=[];" vertex="1" connectable="0" parent="JQGQ8hl08U9fBBSqYFLf-17">
          <mxGeometry x="0.1208" y="2" relative="1" as="geometry">
            <mxPoint x="39" y="-4" as="offset" />
          </mxGeometry>
        </mxCell>
        <mxCell id="JQGQ8hl08U9fBBSqYFLf-18" value="" style="endArrow=open;dashed=1;html=1;rounded=0;entryX=0;entryY=0.5;entryDx=0;entryDy=0;exitX=1;exitY=0.5;exitDx=0;exitDy=0;startArrow=none;startFill=0;endFill=0;" edge="1" parent="1" source="sbpFPQ_lmuKy7Qo0iHd_-16" target="a7vctcmLEf8AsVFq41Ak-8">
          <mxGeometry width="50" height="50" relative="1" as="geometry">
            <mxPoint x="500" y="310" as="sourcePoint" />
            <mxPoint x="550" y="260" as="targetPoint" />
          </mxGeometry>
        </mxCell>
        <mxCell id="JQGQ8hl08U9fBBSqYFLf-19" value="" style="endArrow=open;dashed=1;html=1;rounded=0;exitX=1;exitY=0.5;exitDx=0;exitDy=0;startArrow=none;startFill=0;endFill=0;" edge="1" parent="1" source="sbpFPQ_lmuKy7Qo0iHd_-12">
          <mxGeometry width="50" height="50" relative="1" as="geometry">
            <mxPoint x="530" y="280" as="sourcePoint" />
            <mxPoint x="650" y="220" as="targetPoint" />
          </mxGeometry>
        </mxCell>
        <mxCell id="JQGQ8hl08U9fBBSqYFLf-20" value="&amp;lt;&amp;lt;include&amp;gt;&amp;gt;" style="edgeLabel;html=1;align=center;verticalAlign=middle;resizable=0;points=[];" vertex="1" connectable="0" parent="JQGQ8hl08U9fBBSqYFLf-19">
          <mxGeometry x="-0.2034" y="2" relative="1" as="geometry">
            <mxPoint x="-59" y="-23" as="offset" />
          </mxGeometry>
        </mxCell>
        <mxCell id="JQGQ8hl08U9fBBSqYFLf-24" value="" style="endArrow=open;dashed=1;html=1;rounded=0;exitX=0.5;exitY=0;exitDx=0;exitDy=0;entryX=0.5;entryY=1;entryDx=0;entryDy=0;endFill=0;" edge="1" parent="1" source="JQGQ8hl08U9fBBSqYFLf-1" target="sbpFPQ_lmuKy7Qo0iHd_-15">
          <mxGeometry width="50" height="50" relative="1" as="geometry">
            <mxPoint x="500" y="310" as="sourcePoint" />
            <mxPoint x="550" y="260" as="targetPoint" />
          </mxGeometry>
        </mxCell>
        <mxCell id="JQGQ8hl08U9fBBSqYFLf-25" value="&amp;lt;&amp;lt;extend&amp;gt;&amp;gt;" style="edgeLabel;html=1;align=center;verticalAlign=middle;resizable=0;points=[];" vertex="1" connectable="0" parent="JQGQ8hl08U9fBBSqYFLf-24">
          <mxGeometry y="3" relative="1" as="geometry">
            <mxPoint x="35" as="offset" />
          </mxGeometry>
        </mxCell>
        <mxCell id="JQGQ8hl08U9fBBSqYFLf-26" value="" style="endArrow=none;dashed=1;html=1;dashPattern=1 1;strokeWidth=2;rounded=0;exitX=0;exitY=0.5;exitDx=0;exitDy=0;entryX=1;entryY=0.5;entryDx=0;entryDy=0;endFill=0;startArrow=open;startFill=0;" edge="1" parent="1" source="sbpFPQ_lmuKy7Qo0iHd_-15" target="sbpFPQ_lmuKy7Qo0iHd_-2">
          <mxGeometry width="50" height="50" relative="1" as="geometry">
            <mxPoint x="500" y="310" as="sourcePoint" />
            <mxPoint x="550" y="260" as="targetPoint" />
          </mxGeometry>
        </mxCell>
        <mxCell id="JQGQ8hl08U9fBBSqYFLf-27" value="&amp;lt;&amp;lt;include&amp;gt;&amp;gt;" style="edgeLabel;html=1;align=center;verticalAlign=middle;resizable=0;points=[];" vertex="1" connectable="0" parent="JQGQ8hl08U9fBBSqYFLf-26">
          <mxGeometry x="0.1057" y="1" relative="1" as="geometry">
            <mxPoint x="99" y="80" as="offset" />
          </mxGeometry>
        </mxCell>
        <mxCell id="JQGQ8hl08U9fBBSqYFLf-29" value="&amp;lt;&amp;lt;include&amp;gt;&amp;gt;" style="edgeLabel;html=1;align=center;verticalAlign=middle;resizable=0;points=[];" vertex="1" connectable="0" parent="1">
          <mxGeometry x="569.9966791049949" y="230.00489904799446" as="geometry">
            <mxPoint x="4" y="13" as="offset" />
          </mxGeometry>
        </mxCell>
        <mxCell id="JQGQ8hl08U9fBBSqYFLf-30" value="&amp;lt;&amp;lt;include&amp;gt;&amp;gt;" style="edgeLabel;html=1;align=center;verticalAlign=middle;resizable=0;points=[];" vertex="1" connectable="0" parent="1">
          <mxGeometry x="579.9966791049949" y="140.00489904799446" as="geometry">
            <mxPoint x="-1" as="offset" />
          </mxGeometry>
        </mxCell>
        <mxCell id="JQGQ8hl08U9fBBSqYFLf-31" value="" style="endArrow=open;dashed=1;html=1;rounded=0;startArrow=none;startFill=0;endFill=0;" edge="1" parent="1">
          <mxGeometry width="50" height="50" relative="1" as="geometry">
            <mxPoint x="470" y="390" as="sourcePoint" />
            <mxPoint x="650" y="220" as="targetPoint" />
          </mxGeometry>
        </mxCell>
        <mxCell id="JQGQ8hl08U9fBBSqYFLf-32" value="&amp;lt;&amp;lt;include&amp;gt;&amp;gt;" style="edgeLabel;html=1;align=center;verticalAlign=middle;resizable=0;points=[];" vertex="1" connectable="0" parent="JQGQ8hl08U9fBBSqYFLf-31">
          <mxGeometry x="-0.1693" y="1" relative="1" as="geometry">
            <mxPoint as="offset" />
          </mxGeometry>
        </mxCell>
      </root>
    </mxGraphModel>
  </diagram>
</mxfile>
